<svg width="30" height="30" viewBox="0 0 30 30" fill="none" xmlns="http://www.w3.org/2000/svg">
<path fill-rule="evenodd" clip-rule="evenodd" d="M15 30C18.9782 30 22.7936 28.4196 25.6066 25.6066C28.4196 22.7936 30 18.9782 30 15C30 11.0218 28.4196 7.20644 25.6066 4.3934C22.7936 1.58035 18.9782 0 15 0C11.0218 0 7.20644 1.58035 4.3934 4.3934C1.58035 7.20644 0 11.0218 0 15C0 18.9782 1.58035 22.7936 4.3934 25.6066C7.20644 28.4196 11.0218 30 15 30V30ZM21.9506 12.5756C22.2922 12.222 22.4812 11.7484 22.4769 11.2567C22.4726 10.7651 22.2754 10.2949 21.9278 9.94722C21.5801 9.59958 21.1099 9.40238 20.6183 9.39811C20.1266 9.39384 19.653 9.58283 19.2994 9.92438L13.125 16.0988L10.7006 13.6744C10.347 13.3328 9.87337 13.1438 9.38175 13.1481C8.89013 13.1524 8.41986 13.3496 8.07222 13.6972C7.72458 14.0449 7.52738 14.5151 7.52311 15.0067C7.51884 15.4984 7.70783 15.972 8.04938 16.3256L11.7994 20.0756C12.151 20.4271 12.6278 20.6246 13.125 20.6246C13.6222 20.6246 14.099 20.4271 14.4506 20.0756L21.9506 12.5756V12.5756Z" fill="black" fill-opacity="0.7"/>
</svg>
